
        <svg xmlns="http://www.w3.org/2000/svg" xmlns:xlink="http://www.w3.org/1999/xlink" version="1.1" width="3420.7189795563318" height="3421.0115667146256" viewBox="0 0 3420.7189795563318 3421.0115667146256">
			
			<g transform="scale(21.05057833573127) translate(10, 10)">
				<defs id="SvgjsDefs1013"/><g id="SvgjsG1014" featureKey="UqkkrJ-0" transform="matrix(-0.21176470588235294,0,0,-0.21176470588235294,85.58823529411765,60.588235294117645)" fill="#000"><path xmlns="http://www.w3.org/2000/svg" d="M50,7.5C26.5,7.5,7.5,26.5,7.5,50s19,42.5,42.5,42.5s42.5-19,42.5-42.5S73.5,7.5,50,7.5z M21.2,77.2  C8,63,10.1,48.8,10.1,48.8s1.2,13.9,12.4,26.9C32.3,87,46.3,89.3,46.3,89.3S33.1,90,21.2,77.2z M50,71.9c-11.9,0-21.5-9.6-21.5-21.5  c0-11.9,9.6-21.5,21.5-21.5s21.5,9.6,21.5,21.5C71.5,62.2,61.9,71.9,50,71.9z M76.8,24.5C67,13.1,53,10.8,53,10.8  s13.2-0.7,25.1,12.2c13.2,14.2,11.1,28.5,11.1,28.5S88,37.5,76.8,24.5z"/><circle xmlns="http://www.w3.org/2000/svg" cx="50" cy="50" r="5"/><circle xmlns="http://www.w3.org/2000/svg" stroke="#8ca5fd" stroke-miterlimit="10" cx="50" cy="50" r="14.3"/></g><g id="SvgjsG1015" featureKey="0kuQ8p-0" transform="matrix(6.2664908282447636,0,0,6.2664908282447636,-2.882589008135924,1.4037015711469962)" fill="#000"><path d="M0.52 9.36 c0 -2.24 1.1 -3.52 3.24 -3.52 s3.24 1.28 3.24 3.52 l0 0.44 l-2.08 0 l0 -0.58 c0 -1 -0.4 -1.38 -1.1 -1.38 s-1.1 0.38 -1.1 1.38 c0 1.02 0.44 1.78 1.88 3.04 c1.84 1.62 2.42 2.78 2.42 4.38 c0 2.24 -1.12 3.52 -3.28 3.52 s-3.28 -1.28 -3.28 -3.52 l0 -0.86 l2.08 0 l0 1 c0 1 0.44 1.36 1.14 1.36 s1.14 -0.36 1.14 -1.36 c0 -1.02 -0.44 -1.78 -1.88 -3.04 c-1.84 -1.62 -2.42 -2.78 -2.42 -4.38 z M12.98 20 l-2.7 -10.14 l-0.04 0 l0 10.14 l-1.98 0 l0 -14 l2.76 0 l2.22 8.38 l0.04 0 l0 -8.38 l1.96 0 l0 14 l-2.26 0 z M20.120000000000005 14.2 l0 -2 l3.08 0 l0 4.44 c0 2.24 -1.12 3.52 -3.28 3.52 s-3.28 -1.28 -3.28 -3.52 l0 -7.28 c0 -2.24 1.12 -3.52 3.28 -3.52 s3.28 1.28 3.28 3.52 l0 1.36 l-2.08 0 l0 -1.5 c0 -1 -0.44 -1.38 -1.14 -1.38 s-1.14 0.38 -1.14 1.38 l0 7.56 c0 1 0.44 1.36 1.14 1.36 s1.14 -0.36 1.14 -1.36 l0 -2.58 l-1 0 z"/></g><g id="SvgjsG1016" featureKey="Nh6iBa-0" transform="matrix(0.31477675015195844,0,0,0.31477675015195844,6.855202532825068,136.16170418137318)" fill="#000"><path d="M0.52 9.36 c0 -2.24 1.1 -3.52 3.24 -3.52 s3.24 1.28 3.24 3.52 l0 0.44 l-2.08 0 l0 -0.58 c0 -1 -0.4 -1.38 -1.1 -1.38 s-1.1 0.38 -1.1 1.38 c0 1.02 0.44 1.78 1.88 3.04 c1.84 1.62 2.42 2.78 2.42 4.38 c0 2.24 -1.12 3.52 -3.28 3.52 s-3.28 -1.28 -3.28 -3.52 l0 -0.86 l2.08 0 l0 1 c0 1 0.44 1.36 1.14 1.36 s1.14 -0.36 1.14 -1.36 c0 -1.02 -0.44 -1.78 -1.88 -3.04 c-1.84 -1.62 -2.42 -2.78 -2.42 -4.38 z M21.6079375 14.780000000000001 l2.08 0 l0 1.86 c0 2.24 -1.12 3.52 -3.28 3.52 s-3.28 -1.28 -3.28 -3.52 l0 -7.28 c0 -2.24 1.12 -3.52 3.28 -3.52 s3.28 1.28 3.28 3.52 l0 1.36 l-2.08 0 l0 -1.5 c0 -1 -0.44 -1.38 -1.14 -1.38 s-1.14 0.38 -1.14 1.38 l0 7.56 c0 1 0.44 1.36 1.14 1.36 s1.14 -0.36 1.14 -1.36 l0 -2 z M38.935875 6 l2.24 14 l-2.22 0 l-0.38 -2.54 l-2.7 0 l-0.38 2.54 l-2.02 0 l2.24 -14 l3.22 0 z M37.195875 8.48 l-1.04 7.08 l2.12 0 l-1.04 -7.08 l-0.04 0 z M55.923812500000004 20 l-2.7 -10.14 l-0.04 0 l0 10.14 l-1.98 0 l0 -14 l2.76 0 l2.22 8.38 l0.04 0 l0 -8.38 l1.96 0 l0 14 l-2.26 0 z M68.79175 20 l0 -14 l3.48 0 c2.2 0 3.28 1.22 3.28 3.46 l0 7.08 c0 2.24 -1.08 3.46 -3.28 3.46 l-3.48 0 z M72.23174999999999 8 l-1.24 0 l0 10 l1.24 0 c0.7 0 1.12 -0.36 1.12 -1.36 l0 -7.28 c0 -1 -0.42 -1.36 -1.12 -1.36 z M85.9796875 20 l0 -14 l2.2 0 l0 14 l-2.2 0 z M103.507625 20 l-2.7 -10.14 l-0.04 0 l0 10.14 l-1.98 0 l0 -14 l2.76 0 l2.22 8.38 l0.04 0 l0 -8.38 l1.96 0 l0 14 l-2.26 0 z M121.2555625 6 l2.24 14 l-2.22 0 l-0.38 -2.54 l-2.7 0 l-0.38 2.54 l-2.02 0 l2.24 -14 l3.22 0 z M119.5155625 8.48 l-1.04 7.08 l2.12 0 l-1.04 -7.08 l-0.04 0 z M134.6835 6 l1.66 11.42 l0.04 0 l1.66 -11.42 l2.02 0 l-2.16 14 l-3.28 0 l-2.16 -14 l2.22 0 z M150.11143750000002 20 l0 -14 l2.2 0 l0 14 l-2.2 0 z M167.819375 6 l2.24 14 l-2.22 0 l-0.38 -2.54 l-2.7 0 l-0.38 2.54 l-2.02 0 l2.24 -14 l3.22 0 z M166.079375 8.48 l-1.04 7.08 l2.12 0 l-1.04 -7.08 l-0.04 0 z M184.8073125 20 l-2.7 -10.14 l-0.04 0 l0 10.14 l-1.98 0 l0 -14 l2.76 0 l2.22 8.38 l0.04 0 l0 -8.38 l1.96 0 l0 14 l-2.26 0 z M214.5031875 20 l-2.7 -10.14 l-0.04 0 l0 10.14 l-1.98 0 l0 -14 l2.76 0 l2.22 8.38 l0.04 0 l0 -8.38 l1.96 0 l0 14 l-2.26 0 z M232.251125 6 l2.24 14 l-2.22 0 l-0.38 -2.54 l-2.7 0 l-0.38 2.54 l-2.02 0 l2.24 -14 l3.22 0 z M230.511125 8.48 l-1.04 7.08 l2.12 0 l-1.04 -7.08 l-0.04 0 z M244.39906249999999 6 l6.24 0 l0 1.96 l-4.18 10.04 l4.18 0 l0 2 l-6.44 0 l0 -1.96 l4.18 -10.04 l-3.98 0 l0 -2 z M265.847 6 l2.24 14 l-2.22 0 l-0.38 -2.54 l-2.7 0 l-0.38 2.54 l-2.02 0 l2.24 -14 l3.22 0 z M264.10699999999997 8.48 l-1.04 7.08 l2.12 0 l-1.04 -7.08 l-0.04 0 z M284.97493749999995 20 l-2.24 0 c-0.12 -0.36 -0.2 -0.58 -0.2 -1.72 l0 -2.2 c0 -1.3 -0.44 -1.78 -1.44 -1.78 l-0.76 0 l0 5.7 l-2.2 0 l0 -14 l3.32 0 c2.28 0 3.26 1.06 3.26 3.22 l0 1.1 c0 1.44 -0.46 2.36 -1.44 2.82 l0 0.04 c1.1 0.46 1.46 1.5 1.46 2.96 l0 2.16 c0 0.68 0.02 1.18 0.24 1.7 z M281.39493749999997 8 l-1.06 0 l0 4.3 l0.86 0 c0.82 0 1.32 -0.36 1.32 -1.48 l0 -1.38 c0 -1 -0.34 -1.44 -1.12 -1.44 z M310.6308125 14.2 l0 -2 l3.08 0 l0 4.44 c0 2.24 -1.12 3.52 -3.28 3.52 s-3.28 -1.28 -3.28 -3.52 l0 -7.28 c0 -2.24 1.12 -3.52 3.28 -3.52 s3.28 1.28 3.28 3.52 l0 1.36 l-2.08 0 l0 -1.5 c0 -1 -0.44 -1.38 -1.14 -1.38 s-1.14 0.38 -1.14 1.38 l0 7.56 c0 1 0.44 1.36 1.14 1.36 s1.14 -0.36 1.14 -1.36 l0 -2.58 l-1 0 z M330.99875 20 l-2.24 0 c-0.12 -0.36 -0.2 -0.58 -0.2 -1.72 l0 -2.2 c0 -1.3 -0.44 -1.78 -1.44 -1.78 l-0.76 0 l0 5.7 l-2.2 0 l0 -14 l3.32 0 c2.28 0 3.26 1.06 3.26 3.22 l0 1.1 c0 1.44 -0.46 2.36 -1.44 2.82 l0 0.04 c1.1 0.46 1.46 1.5 1.46 2.96 l0 2.16 c0 0.68 0.02 1.18 0.24 1.7 z M327.41875 8 l-1.06 0 l0 4.3 l0.86 0 c0.82 0 1.32 -0.36 1.32 -1.48 l0 -1.38 c0 -1 -0.34 -1.44 -1.12 -1.44 z M343.24668749999995 9.22 l0 7.56 c0 1 0.44 1.38 1.14 1.38 s1.14 -0.38 1.14 -1.38 l0 -7.56 c0 -1 -0.44 -1.38 -1.14 -1.38 s-1.14 0.38 -1.14 1.38 z M341.04668749999996 16.64 l0 -7.28 c0 -2.24 1.18 -3.52 3.34 -3.52 s3.34 1.28 3.34 3.52 l0 7.28 c0 2.24 -1.18 3.52 -3.34 3.52 s-3.34 -1.28 -3.34 -3.52 z M358.07462499999997 6 l2.2 0 l0 10.8 c0 1 0.44 1.36 1.14 1.36 s1.14 -0.36 1.14 -1.36 l0 -10.8 l2.08 0 l0 10.66 c0 2.24 -1.12 3.52 -3.28 3.52 s-3.28 -1.28 -3.28 -3.52 l0 -10.66 z M378.4025625 6 c2.2 0 3.28 1.22 3.28 3.46 l0 1.82 c0 2.24 -1.08 3.46 -3.28 3.46 l-1.04 0 l0 5.26 l-2.2 0 l0 -14 l3.24 0 z M378.4025625 8 l-1.04 0 l0 4.74 l1.04 0 c0.7 0 1.08 -0.32 1.08 -1.32 l0 -2.1 c0 -1 -0.38 -1.32 -1.08 -1.32 z"/></g>
			</g>
		</svg>
	